<svg xmlns="http://www.w3.org/2000/svg" version="1.1" xmlns:xlink="http://www.w3.org/1999/xlink" xmlns:svgjs="http://svgjs.com/svgjs" width="18px" height="18px" x="0" y="0" viewBox="0 0 682.667 682.667" style="enable-background:new 0 0 512 512" xml:space="preserve" class=""><g><defs><clipPath id="b" clipPathUnits="userSpaceOnUse"><path d="M0 512h512V0H0Z" fill="#000000" data-original="#000000"></path></clipPath></defs><mask id="a"><rect width="100%" height="100%" fill="#ffffff" data-original="#ffffff"></rect><path d="M0 0c-11.046 0-20-8.954-20-20s8.954-20 20-20 20 8.954 20 20S11.046 0 0 0" style="fill-opacity:1;fill-rule:nonzero;stroke:none" transform="matrix(1.33333 0 0 -1.33333 166.667 253.333)" fill="#ffffff" data-original="#ffffff"></path><path d="M0 0c-11.046 0-20-8.954-20-20s8.954-20 20-20 20 8.954 20 20S11.046 0 0 0" style="fill-opacity:1;fill-rule:nonzero;stroke:none" transform="matrix(1.33333 0 0 -1.33333 282.667 253.333)" fill="#ffffff" data-original="#ffffff"></path><path d="M0 0c-11.046 0-20-8.954-20-20s8.954-20 20-20 20 8.954 20 20S11.046 0 0 0" style="fill-opacity:1;fill-rule:nonzero;stroke:none" transform="matrix(1.33333 0 0 -1.33333 398.667 253.333)" fill="#ffffff" data-original="#ffffff"></path><path d="M0 0c-11.046 0-20-8.954-20-20s8.954-20 20-20 20 8.954 20 20S11.046 0 0 0" style="fill-opacity:1;fill-rule:nonzero;stroke:none" transform="matrix(1.33333 0 0 -1.33333 514.667 253.333)" fill="#ffffff" data-original="#ffffff"></path><path d="M0 0c0 11.046-8.954 20-20 20s-20-8.954-20-20 8.954-20 20-20S0-11.046 0 0" style="fill-opacity:1;fill-rule:nonzero;stroke:none" transform="matrix(1.33333 0 0 -1.33333 193.333 396)" fill="#ffffff" data-original="#ffffff"></path><path d="M0 0c0 11.046-8.954 20-20 20s-20-8.954-20-20 8.954-20 20-20S0-11.046 0 0" style="fill-opacity:1;fill-rule:nonzero;stroke:none" transform="matrix(1.33333 0 0 -1.33333 193.333 512)" fill="#ffffff" data-original="#ffffff"></path><path d="M0 0c0 11.046-8.954 20-20 20s-20-8.954-20-20 8.954-20 20-20S0-11.046 0 0" style="fill-opacity:1;fill-rule:nonzero;stroke:none" transform="matrix(1.33333 0 0 -1.33333 309.333 396)" fill="#ffffff" data-original="#ffffff"></path><path d="M0 0c0 11.046-8.954 20-20 20s-20-8.954-20-20 8.954-20 20-20S0-11.046 0 0" style="fill-opacity:1;fill-rule:nonzero;stroke:none" transform="matrix(1.33333 0 0 -1.33333 309.333 512)" fill="#ffffff" data-original="#ffffff"></path><path d="M0 0c-11.046 0-20-8.954-20-20s8.954-20 20-20 20 8.954 20 20S11.046 0 0 0" style="fill-opacity:1;fill-rule:nonzero;stroke:none" transform="matrix(1.33333 0 0 -1.33333 282.667 253.333)" fill="#ffffff" data-original="#ffffff"></path><path d="M0 0c0 11.046-8.954 20-20 20s-20-8.954-20-20 8.954-20 20-20S0-11.046 0 0" style="fill-opacity:1;fill-rule:nonzero;stroke:none" transform="matrix(1.33333 0 0 -1.33333 309.333 396)" fill="#ffffff" data-original="#ffffff"></path><path d="M0 0c0 11.046-8.954 20-20 20s-20-8.954-20-20 8.954-20 20-20S0-11.046 0 0" style="fill-opacity:1;fill-rule:nonzero;stroke:none" transform="matrix(1.33333 0 0 -1.33333 309.333 512)" fill="#ffffff" data-original="#ffffff"></path><path d="M0 0c0 11.046-8.954 20-20 20s-20-8.954-20-20 8.954-20 20-20S0-11.046 0 0" style="fill-opacity:1;fill-rule:nonzero;stroke:none" transform="matrix(1.33333 0 0 -1.33333 425.333 396)" fill="#ffffff" data-original="#ffffff"></path><path d="M0 0c0 11.046-8.954 20-20 20s-20-8.954-20-20 8.954-20 20-20S0-11.046 0 0" style="fill-opacity:1;fill-rule:nonzero;stroke:none" transform="matrix(1.33333 0 0 -1.33333 541.333 396)" fill="#ffffff" data-original="#ffffff"></path></mask><g mask="url(#a)"><g clip-path="url(#b)" transform="matrix(1.33333 0 0 -1.33333 0 682.667)"><path d="M0 0h-168c-33.137 0-60 26.863-60 60v312c0 33.137 26.863 60 60 60h352c33.137 0 60-26.863 60-60V230" style="stroke-width:40;stroke-linecap:round;stroke-linejoin:round;stroke-miterlimit:10;stroke-dasharray:none;stroke-opacity:1" transform="translate(248 20)" fill="none" stroke="#000000" stroke-width="40" stroke-linecap="round" stroke-linejoin="round" stroke-miterlimit="10" stroke-dasharray="none" stroke-opacity="" data-original="#000000" class=""></path><path d="M0 0c-11.046 0-20-8.954-20-20s8.954-20 20-20 20 8.954 20 20S11.046 0 0 0" style="fill-opacity:1;fill-rule:nonzero;stroke:none" transform="translate(125 322)" fill="#000000" data-original="#000000"></path><path d="M0 0c-11.046 0-20-8.954-20-20s8.954-20 20-20 20 8.954 20 20S11.046 0 0 0" style="fill-opacity:1;fill-rule:nonzero;stroke:none" transform="translate(212 322)" fill="#000000" data-original="#000000"></path><path d="M0 0c-11.046 0-20-8.954-20-20s8.954-20 20-20 20 8.954 20 20S11.046 0 0 0" style="fill-opacity:1;fill-rule:nonzero;stroke:none" transform="translate(299 322)" fill="#000000" data-original="#000000"></path><path d="M0 0c-11.046 0-20-8.954-20-20s8.954-20 20-20 20 8.954 20 20S11.046 0 0 0" style="fill-opacity:1;fill-rule:nonzero;stroke:none" transform="translate(386 322)" fill="#000000" data-original="#000000"></path><path d="M0 0c0 11.046-8.954 20-20 20s-20-8.954-20-20 8.954-20 20-20S0-11.046 0 0" style="fill-opacity:1;fill-rule:nonzero;stroke:none" transform="translate(145 215)" fill="#000000" data-original="#000000"></path><path d="M0 0c0 11.046-8.954 20-20 20s-20-8.954-20-20 8.954-20 20-20S0-11.046 0 0" style="fill-opacity:1;fill-rule:nonzero;stroke:none" transform="translate(145 128)" fill="#000000" data-original="#000000"></path><path d="M0 0c0 11.046-8.954 20-20 20s-20-8.954-20-20 8.954-20 20-20S0-11.046 0 0" style="fill-opacity:1;fill-rule:nonzero;stroke:none" transform="translate(232 215)" fill="#000000" data-original="#000000"></path><path d="M0 0c0 11.046-8.954 20-20 20s-20-8.954-20-20 8.954-20 20-20S0-11.046 0 0" style="fill-opacity:1;fill-rule:nonzero;stroke:none" transform="translate(232 128)" fill="#000000" data-original="#000000"></path><path d="M0 0c-11.046 0-20-8.954-20-20s8.954-20 20-20 20 8.954 20 20S11.046 0 0 0" style="fill-opacity:1;fill-rule:nonzero;stroke:none" transform="translate(212 322)" fill="#000000" data-original="#000000"></path><path d="M0 0c0 11.046-8.954 20-20 20s-20-8.954-20-20 8.954-20 20-20S0-11.046 0 0" style="fill-opacity:1;fill-rule:nonzero;stroke:none" transform="translate(232 215)" fill="#000000" data-original="#000000"></path><path d="M0 0c0 11.046-8.954 20-20 20s-20-8.954-20-20 8.954-20 20-20S0-11.046 0 0" style="fill-opacity:1;fill-rule:nonzero;stroke:none" transform="translate(232 128)" fill="#000000" data-original="#000000"></path><path d="M0 0v-80" style="stroke-width:40;stroke-linecap:round;stroke-linejoin:round;stroke-miterlimit:10;stroke-dasharray:none;stroke-opacity:1" transform="translate(125 492)" fill="none" stroke="#000000" stroke-width="40" stroke-linecap="round" stroke-linejoin="round" stroke-miterlimit="10" stroke-dasharray="none" stroke-opacity="" data-original="#000000" class=""></path><path d="M0 0v80" style="stroke-width:40;stroke-linecap:round;stroke-linejoin:round;stroke-miterlimit:10;stroke-dasharray:none;stroke-opacity:1" transform="translate(386 412)" fill="none" stroke="#000000" stroke-width="40" stroke-linecap="round" stroke-linejoin="round" stroke-miterlimit="10" stroke-dasharray="none" stroke-opacity="" data-original="#000000" class=""></path><path d="M0 0c0 11.046-8.954 20-20 20s-20-8.954-20-20 8.954-20 20-20S0-11.046 0 0" style="fill-opacity:1;fill-rule:nonzero;stroke:none" transform="translate(319 215)" fill="#000000" data-original="#000000"></path><path d="M0 0c0 11.046-8.954 20-20 20s-20-8.954-20-20 8.954-20 20-20S0-11.046 0 0" style="fill-opacity:1;fill-rule:nonzero;stroke:none" transform="translate(406 215)" fill="#000000" data-original="#000000"></path><path d="M0 0v-80" style="stroke-width:40;stroke-linecap:round;stroke-linejoin:round;stroke-miterlimit:10;stroke-dasharray:none;stroke-opacity:1" transform="translate(255 492)" fill="none" stroke="#000000" stroke-width="40" stroke-linecap="round" stroke-linejoin="round" stroke-miterlimit="10" stroke-dasharray="none" stroke-opacity="" data-original="#000000" class=""></path><path d="m0 0 63.821-62.281c13.322-12.681 34.638-11.26 46.158 3.076l98.982 138.261" style="stroke-width:40;stroke-linecap:round;stroke-linejoin:round;stroke-miterlimit:10;stroke-dasharray:none;stroke-opacity:1" transform="translate(283.039 90.944)" fill="none" stroke="#000000" stroke-width="40" stroke-linecap="round" stroke-linejoin="round" stroke-miterlimit="10" stroke-dasharray="none" stroke-opacity="" data-original="#000000" class=""></path></g></g></g></svg>
