<svg xmlns="http://www.w3.org/2000/svg" version="1.1" xmlns:xlink="http://www.w3.org/1999/xlink" xmlns:svgjs="http://svgjs.com/svgjs" width="30px" height="30px" x="0" y="0" viewBox="0 0 24 24" style="enable-background:new 0 0 512 512" xml:space="preserve" class=""><g><path d="M15.25 7.25V7c0-.86-.34-1.69-.95-2.3s-1.44-.95-2.3-.95-1.69.34-2.3.95-.95 1.44-.95 2.3v.25zm-8 4.75V8.75h-.41c-.65 0-1.19.5-1.25 1.15l-.66 8c-.06.72.51 1.35 1.24 1.35h11.66c.73 0 1.3-.63 1.24-1.35l-.66-8a1.26 1.26 0 0 0-1.25-1.15h-.41V12c0 .41-.34.75-.75.75s-.75-.34-.75-.75V8.75h-6.5V12c0 .41-.34.75-.75.75s-.75-.34-.75-.75zm0-5c0-1.26.5-2.47 1.39-3.36A4.753 4.753 0 0 1 16.75 7v.25h.41c1.43 0 2.62 1.1 2.74 2.52l.67 8c.13 1.6-1.13 2.98-2.74 2.98H6.17c-1.61 0-2.87-1.38-2.74-2.98l.67-8a2.753 2.753 0 0 1 2.74-2.52h.41z" fill="#ebb700" data-original="#000000" class=""></path></g></svg>
