<svg xmlns="http://www.w3.org/2000/svg" version="1.1" xmlns:xlink="http://www.w3.org/1999/xlink" xmlns:svgjs="http://svgjs.com/svgjs" width="35px" height="35px" x="0" y="0" viewBox="0 0 512 512" style="enable-background:new 0 0 512 512" xml:space="preserve" class=""><g><linearGradient id="a" x1="256" x2="256" y1="0" y2="512" gradientUnits="userSpaceOnUse"><stop offset="0" stop-color="#2af598"></stop><stop offset="1" stop-color="#009efd"></stop></linearGradient><path fill="url(#a)" d="M452 40h-24V0h-40v40H124V0H84v40H60C26.914 40 0 66.914 0 100v352c0 33.086 26.914 60 60 60h237.637l-42.024-40H60c-11.027 0-20-8.973-20-20V188h432v75.008l40-44.215V100c0-33.086-26.914-60-60-60zM40 148v-48c0-11.027 8.973-20 20-20h24v40h40V80h264v40h40V80h24c11.027 0 20 8.973 20 20v48zm316 122h-40v-40h40zm80-40v40h-40v-40zM116 350H76v-40h40zm80 0h-40v-40h40zm40-40h40v40h-40zm80 0h40v40h-40zM76 390h40v40H76zm80 0h40v40h-40zm326.121-79.363 29.758 26.726L355.316 511.68 253.13 414.41l27.578-28.973 72.363 68.883zM116 270H76v-40h40zm80 0h-40v-40h40zm80 0h-40v-40h40zm0 0" data-original="url(#a)"></path></g></svg>
