<svg xmlns="http://www.w3.org/2000/svg" version="1.1" xmlns:xlink="http://www.w3.org/1999/xlink" xmlns:svgjs="http://svgjs.com/svgjs" width="20px" height="20px" x="0" y="0" viewBox="0 0 512 512" style="enable-background:new 0 0 512 512" xml:space="preserve" class=""><g><circle cx="383.502" cy="114.353" r="81.916" style="" fill="#91dc5a" data-original="#91dc5a" class=""></circle><path d="M481.88 411.14H278.493c-12.423 0-22.493-10.07-22.493-22.493V262.603c0-43.371 35.159-78.53 78.53-78.53h91.314c43.371 0 78.53 35.159 78.53 78.53v126.044c-.001 12.423-10.071 22.493-22.494 22.493z" style="" fill="#91dc5a" data-original="#91dc5a" class=""></path><path d="M408.399 192.412a81.903 81.903 0 0 1-24.897 3.851c-45.241 0-81.905-36.674-81.905-81.916 0-45.231 36.664-81.905 81.905-81.905a81.939 81.939 0 0 1 24.897 3.851c-33.067 10.538-57.009 41.501-57.009 78.054 0 36.564 23.942 67.527 57.009 78.065z" style="" fill="#7ed63e" data-original="#7ed63e" class=""></path><path d="M305.794 262.605v126.039c0 12.428 10.07 22.499 22.499 22.499h-49.794c-12.428 0-22.499-10.07-22.499-22.499V262.605c0-43.371 35.16-78.532 78.532-78.532h49.794c-43.372 0-78.532 35.161-78.532 78.532z" style="" fill="#7ed63e" data-original="#7ed63e" class=""></path><circle cx="135.134" cy="114.353" r="81.916" style="" fill="#ffda44" data-original="#ffda44" class=""></circle><path d="M233.507 411.14H30.12c-12.423 0-22.493-10.07-22.493-22.493V262.603c0-43.371 35.159-78.53 78.53-78.53h91.314c43.371 0 78.53 35.159 78.53 78.53v126.044C256 401.07 245.93 411.14 233.507 411.14z" style="" fill="#ffda44" data-original="#ffda44" class=""></path><circle cx="259.313" cy="182.835" r="81.916" style="" fill="#ff7956" data-original="#ff7956"></circle><path d="M357.693 479.626H154.306c-12.423 0-22.493-10.07-22.493-22.493V331.088c0-43.371 35.159-78.53 78.53-78.53h91.314c43.371 0 78.53 35.159 78.53 78.53v126.044c0 12.423-10.071 22.494-22.494 22.494z" style="" fill="#ff7956" data-original="#ff7956"></path><path d="M160.03 192.412a81.951 81.951 0 0 1-24.897 3.851c-45.241 0-81.916-36.674-81.916-81.916 0-45.231 36.674-81.905 81.916-81.905a81.987 81.987 0 0 1 24.897 3.851c-33.067 10.538-57.019 41.501-57.019 78.054.001 36.564 23.952 67.527 57.019 78.065z" style="" fill="#ffd422" data-original="#ffd422"></path><path d="M57.415 262.605v126.039c0 12.428 10.071 22.499 22.499 22.499H30.12c-12.428 0-22.499-10.07-22.499-22.499V262.605c0-43.371 35.16-78.532 78.532-78.532h49.794c-43.372 0-78.532 35.161-78.532 78.532z" style="" fill="#ffd422" data-original="#ffd422"></path><path d="M284.21 260.894a81.903 81.903 0 0 1-24.897 3.851c-45.231 0-81.905-36.674-81.905-81.905 0-45.241 36.674-81.916 81.905-81.916a81.939 81.939 0 0 1 24.897 3.851c-33.057 10.538-57.009 41.501-57.009 78.064 0 36.553 23.952 67.517 57.009 78.055z" style="" fill="#ff6243" data-original="#ff6243" class=""></path><path d="M181.604 331.086v126.049c0 12.418 10.07 22.488 22.499 22.488h-49.794c-12.428 0-22.499-10.07-22.499-22.488V331.086c0-43.371 35.16-78.532 78.532-78.532h49.794c-43.371.001-78.532 35.162-78.532 78.532z" style="" fill="#ff6243" data-original="#ff6243" class=""></path><path d="M445.642 178.752c16.879-16.3 27.397-39.144 27.397-64.396 0-24.948-10.528-48.95-28.88-65.86-3.099-2.856-7.916-2.652-10.772.437-2.856 3.099-2.652 7.916.437 10.772 15.233 14.034 23.972 33.951 23.972 54.651 0 54.712-57.265 90.212-105.818 67.26a5.733 5.733 0 0 1-3.271-4.834c-.616-10.346-5.089-43.254-36.597-66.214a5.768 5.768 0 0 1-2.336-5.35c5.802-47.497 55.356-77.846 100.749-60.086 3.923 1.524 8.343-.406 9.877-4.329a7.61 7.61 0 0 0-4.329-9.867c-52.979-20.703-110.843 12.803-120.672 67.481-.213 1.189-1.484 1.844-2.602 1.391-21.579-8.728-45.703-8.605-66.965.003-1.115.451-2.379-.201-2.592-1.385-7.533-41.79-44.169-73.606-88.104-73.606h-.01c-38.239 0-72.272 24.297-84.69 60.443-1.372 3.983.752 8.312 4.735 9.684a7.63 7.63 0 0 0 9.684-4.735c10.294-29.998 38.544-50.149 70.28-50.149 37.865 0 69.206 28.48 73.725 65.142a5.749 5.749 0 0 1-2.309 5.34c-21.431 15.684-34.912 40.121-36.569 66.218a5.739 5.739 0 0 1-3.26 4.823c-46.793 22.156-103.6-9.858-105.822-64.161-.173-4.207-3.709-7.459-7.926-7.306-4.207.173-7.469 3.719-7.306 7.926.925 22.56 10.192 43.666 26.157 59.61C31.116 184.494 0 219.979 0 262.598v126.049c0 16.629 13.481 30.11 30.11 30.11h94.079v38.374c0 16.634 13.485 30.119 30.12 30.118l204.083-.01c16.218-.366 29.419-13.871 29.419-30.11v-38.372h94.069c16.635 0 30.12-13.485 30.12-30.12V262.598c0-40.689-28.372-74.873-66.358-83.846zM224.61 117.171c46.501-24.688 104.247 6.207 108.723 59.295-.03 0-.051 0-.071.01h.071c.479 5.484.287 11.095-.264 15.233-.071.01-.152.01-.234.01h.234c-1.936 19.665-13.733 40.534-33.037 53.218h-.041v.03c-15.802 10.376-34.187 13.88-51.379 11.381v-.041c-.01.01-.01.02-.01.041-8.811-1.039-20.235-4.973-30.008-11.412-47.504-31.233-43.759-101.433 6.016-127.765zm147.958 339.958c0 8.259-6.888 14.877-14.715 14.877H154.309c-8.216 0-14.877-6.66-14.877-14.877V331.09c0-15.914 5.152-30.953 14.897-43.483 2.581-3.323 1.982-8.109-1.341-10.701-3.323-2.581-8.109-1.982-10.701 1.341-11.839 15.233-18.098 33.504-18.098 52.842v72.424H30.11c-8.211 0-14.867-6.656-14.867-14.867V262.599c0-39.157 31.743-70.9 70.9-70.9h3.841c22.807 13.35 50.253 15.702 74.597 7.204 3.253-1.135 6.734.811 7.512 4.166 3.11 13.412 9.243 25.677 17.637 36.042 2.591 3.2.981 7.983-2.98 9.108a85.606 85.606 0 0 0-19.414 8.2c-3.648 2.114-4.898 6.768-2.795 10.416a7.627 7.627 0 0 0 10.416 2.795c17.216-9.957 32.933-9.504 37.91-9.433a5.766 5.766 0 0 1 2.743.754c27.575 15.486 60.961 14.906 87.194.124.961-.542 2.054-.829 3.155-.764 37.001 2.215 66.608 33.025 66.608 70.778l.001 126.04zm124.189-68.482c0 8.201-6.676 14.867-14.877 14.867h-94.069V331.09c0-40.699-28.362-74.894-66.368-83.856 14.647-14.129 23.527-32.166 26.37-50.779 25.454 11.143 55.617 9.896 80.645-4.705 37.884 1.372 68.298 32.63 68.298 70.849v126.048z" fill="#000000" data-original="#000000" class=""></path></g></svg>
