<svg xmlns="http://www.w3.org/2000/svg" version="1.1" xmlns:xlink="http://www.w3.org/1999/xlink" xmlns:svgjs="http://svgjs.com/svgjs" width="20px" height="20px" x="0" y="0" viewBox="0 0 512 512" style="enable-background:new 0 0 512 512" xml:space="preserve" class=""><g><linearGradient id="a" x1="52.34" x2="459.661" y1="461.466" y2="54.146" gradientUnits="userSpaceOnUse"><stop offset="0" stop-color="#e81e25"></stop><stop offset=".108" stop-color="#ea3522"></stop><stop offset=".416" stop-color="#f1711c"></stop><stop offset=".678" stop-color="#f59d17"></stop><stop offset=".881" stop-color="#f8b814"></stop><stop offset="1" stop-color="#f9c213"></stop></linearGradient><path fill="url(#a)" d="M240 413.907V207.228a16 16 0 0 1 32 0v206.679a16 16 0 0 1-32 0zM494.951 103.4v21.731a16 16 0 0 1-16 16h-28.587V447.71c0 35.45-34.96 64.29-77.931 64.29H139.567c-42.97 0-77.93-28.84-77.93-64.29V141.135H33.049a16 16 0 0 1-16-16V103.4c0-20.8 19.68-37.73 43.869-37.73h78.753V38.216C139.671 17.144 159.63 0 184.162 0h143.676c24.532 0 44.491 17.144 44.491 38.216v27.458h78.753c24.189 0 43.869 16.926 43.869 37.726zm-323.28-37.73h168.658V38.216c0-1.9-4.719-6.216-12.491-6.216H184.162c-7.772 0-12.491 4.317-12.491 6.216zm246.693 75.461H93.637V447.71c0 17.5 21.033 32.29 45.93 32.29h232.866c24.9 0 45.931-14.787 45.931-32.29zm44.587-37.731c0-1.75-4.484-5.73-11.869-5.73H60.918c-7.385 0-11.869 3.98-11.869 5.73v5.731h413.9zM165.263 429.9a16 16 0 0 0 16-16V207.228a16 16 0 0 0-32 0v206.679a16 16 0 0 0 16 16zm181.475 0a16 16 0 0 0 16-16V207.228a16 16 0 0 0-32 0v206.679a16 16 0 0 0 16 16z" data-original="url(#a)"></path></g></svg>
