<svg xmlns="http://www.w3.org/2000/svg" version="1.1" xmlns:xlink="http://www.w3.org/1999/xlink" xmlns:svgjs="http://svgjs.com/svgjs" width="20px" height="20px" x="0" y="0" viewBox="0 0 64 64" style="enable-background:new 0 0 512 512" xml:space="preserve" class=""><g><linearGradient id="a" x1="9.5" x2="48" y1="2" y2="52" gradientUnits="userSpaceOnUse"><stop offset="0" stop-color="#fa1228"></stop><stop offset=".901" stop-color="#5a00d1"></stop></linearGradient><path fill="url(#a)" fill-rule="evenodd" d="M2 20c0-9.941 8.059-18 18-18h16a2 2 0 1 1 0 4H20C12.268 6 6 12.268 6 20v24c0 7.732 6.268 14 14 14h24c7.732 0 14-6.268 14-14V30a2 2 0 1 1 4 0v14c0 9.941-8.059 18-18 18H20c-9.941 0-18-8.059-18-18zM45.74 4.79a9.525 9.525 0 0 1 13.47 13.47L40.056 37.414a2 2 0 0 1-1.414.586H28a2 2 0 0 1-2-2V25.358a2 2 0 0 1 .586-1.414zm-1.778 7.435L30 26.187V34h7.813l13.962-13.962zm10.642 4.984L46.79 9.396l1.778-1.778a5.525 5.525 0 0 1 7.813 7.813z" clip-rule="evenodd" data-original="url(#a)" class=""></path></g></svg>
