<svg xmlns="http://www.w3.org/2000/svg" version="1.1" xmlns:xlink="http://www.w3.org/1999/xlink" xmlns:svgjs="http://svgjs.com/svgjs" width="20px" height="20px" x="0" y="0" viewBox="0 0 64 64" style="enable-background:new 0 0 512 512" xml:space="preserve" class=""><g><path fill="#fcd770" d="M40 6v4H24V6h12z" data-original="#fcd770"></path><path fill="#ffeaa7" d="M36 14v20.23c-.55-.15-1.14-.23-1.75-.23h-4.5c-2.44 0-4.57 1.29-5.74 3.23l-.01-.01V10h16v4z" data-original="#ffeaa7" class=""></path><path fill="#e6e9ed" d="M41 40.75c0-1.87-.76-3.55-1.98-4.77A6.662 6.662 0 0 0 36 34.23V14h20v21.52A8.94 8.94 0 0 0 51 34c-2.48 0-4.74 1.01-6.36 2.64A8.954 8.954 0 0 0 42 43v2h-1c0-.62-.19-1.19-.51-1.67v-.01c.33-.81.51-1.67.51-2.57zM23 40.75c0 .89.18 1.76.51 2.57v.01c-.32.48-.51 1.05-.51 1.67h-1v-2a9 9 0 0 0-9-9c-1.85 0-3.57.56-5 1.52V14h16v23.22l.01.01A6.584 6.584 0 0 0 23 40.75z" data-original="#e6e9ed" class=""></path><path fill="#b4dd7f" d="M22 56.83c.18.19.35.39.5.6a7.615 7.615 0 0 0-1.5 4.55V62H2v-.02c0-1.96.74-3.78 2-5.15.99-1.1 2.3-1.92 3.82-2.29L10 54a2.996 2.996 0 0 0 5.12 2.12c.54-.54.88-1.29.88-2.12 0 0 .95.24 2.19.55A7.55 7.55 0 0 1 22 56.83z" data-original="#b4dd7f"></path><path fill="#fcd770" d="M41.49 57.44A7.588 7.588 0 0 1 43 62H21v-.02c0-1.69.55-3.27 1.5-4.55a7.638 7.638 0 0 1 4.32-2.89L29 54l3 4 3-4s.95.24 2.19.55c1.78.44 3.28 1.49 4.3 2.89z" data-original="#fcd770"></path><path fill="#ff826e" d="M57.11 54.84A7.656 7.656 0 0 1 62 61.98V62H51c1.62-1.62 2.65-3.74 2.92-6 .05-.41.08-.82.08-1.24V54s.95.24 2.19.55c.32.08.62.18.92.29zM48 54v.76c0 .42.03.83.08 1.24.27 2.26 1.3 4.38 2.92 6h-8c0-1.69-.55-3.28-1.51-4.56a7.622 7.622 0 0 1 3.39-2.6c.3-.12.62-.22.94-.3z" data-original="#ff826e"></path><path fill="#b27946" d="M36 34.23c1.16.31 2.2.92 3.02 1.75A6.717 6.717 0 0 1 41 40.75c0 .9-.18 1.76-.51 2.57A2.99 2.99 0 0 0 38 42h-1.17c-1.81 0-3.55-.72-4.83-2-1.28 1.28-3.02 2-4.83 2H26c-1.04 0-1.95.52-2.49 1.32-.33-.81-.51-1.68-.51-2.57 0-1.3.37-2.5 1.01-3.52A6.682 6.682 0 0 1 29.75 34h4.5c.61 0 1.2.08 1.75.23z" data-original="#b27946"></path><path fill="#656d78" d="M60 51c0 1.82-1.22 3.36-2.89 3.84-.3-.11-.6-.21-.92-.29C54.95 54.24 54 54 54 54l-.57-2.26v-.01A3.982 3.982 0 0 0 56 48v-5c-1.87 0-3.62-.94-4.66-2.5L51 40l-.34.5a5.74 5.74 0 0 1-2.02 1.84c-.8.42-1.7.66-2.64.66v5c0 1.7 1.06 3.16 2.57 3.73v.01L48 54l-2.18.54c-.32.08-.64.18-.94.3A4.002 4.002 0 0 1 42 51v-8c0-2.48 1.01-4.74 2.64-6.36A8.954 8.954 0 0 1 51 34c1.85 0 3.57.56 5 1.52 2.41 1.61 4 4.36 4 7.48zM8 48c0 1.7 1.06 3.16 2.57 3.73v.01L10 54l-2.18.54A7.525 7.525 0 0 0 4 56.83V43c0-2.48 1.01-4.74 2.64-6.36.41-.42.87-.79 1.36-1.12A8.94 8.94 0 0 1 13 34a9 9 0 0 1 9 9v13.83a7.55 7.55 0 0 0-3.81-2.28C16.95 54.24 16 54 16 54l-.57-2.26v-.01A3.982 3.982 0 0 0 18 48v-5h-2.44c-1.6 0-3.09-.8-3.98-2.13-.36-.54-.97-.87-1.63-.87C8.87 40 8 40.87 8 41.95z" data-original="#656d78"></path><path fill="#e6e9ed" d="M48.08 56h5.84c-.27 2.26-1.3 4.38-2.92 6a10.215 10.215 0 0 1-2.92-6z" data-original="#e6e9ed" class=""></path><path fill="#f0d0b4" d="M54 54v.76c0 .42-.03.83-.08 1.24h-5.84c-.05-.41-.08-.82-.08-1.24V54l.57-2.26v-.01c.44.18.92.27 1.43.27h2c.5 0 .99-.09 1.43-.27v.01z" data-original="#f0d0b4"></path><path fill="#f0d0b4" d="M56 43v5c0 1.7-1.06 3.16-2.57 3.73-.44.18-.93.27-1.43.27h-2c-.51 0-.99-.09-1.43-.27A3.982 3.982 0 0 1 46 48v-5c.94 0 1.84-.24 2.64-.66.8-.44 1.5-1.06 2.02-1.84L51 40l.34.5A5.607 5.607 0 0 0 56 43zM40.49 43.33a2.994 2.994 0 0 1-.37 3.79c-.54.54-1.29.88-2.12.88h-1v-6h1c1.04 0 1.95.52 2.49 1.32zM33 52c.5 0 .99-.09 1.43-.27v.01L35 54l-3 4-3-4 .57-2.26v-.01c.44.18.92.27 1.43.27z" data-original="#f0d0b4"></path><path fill="#f0d0b4" d="M37 42v6c0 1.7-1.06 3.16-2.57 3.73-.44.18-.93.27-1.43.27h-2c-.51 0-.99-.09-1.43-.27A3.982 3.982 0 0 1 27 48v-6h.17c1.81 0 3.55-.72 4.83-2 1.28 1.28 3.02 2 4.83 2z" data-original="#f0d0b4"></path><path fill="#f0d0b4" d="M27 42v6h-1c-.83 0-1.58-.34-2.12-.88a2.993 2.993 0 0 1-.37-3.79v-.01A2.99 2.99 0 0 1 26 42zM16 54c0 .83-.34 1.58-.88 2.12S13.83 57 13 57c-1.66 0-3-1.34-3-3l.57-2.26v-.01c.44.18.92.27 1.43.27h2c.5 0 .99-.09 1.43-.27v.01z" data-original="#f0d0b4"></path><path fill="#f0d0b4" d="M18 43v5c0 1.7-1.06 3.16-2.57 3.73-.44.18-.93.27-1.43.27h-2c-.51 0-.99-.09-1.43-.27A3.982 3.982 0 0 1 8 48v-6.05C8 40.87 8.87 40 9.95 40c.66 0 1.27.33 1.63.87A4.788 4.788 0 0 0 15.56 43z" data-original="#f0d0b4"></path><path d="M59.2 54.818C60.305 53.886 61 52.504 61 51v-8c0-3.262-1.577-6.154-4-7.981V13H41V5h-4V3h-2v2h-2V1h-2v4h-2V3h-2v2h-4v8H7v22.019C4.577 36.846 3 39.738 3 43v13.452A8.669 8.669 0 0 0 1 62v1h61.998l.002-.999a8.648 8.648 0 0 0-3.8-7.183zM59 43v8c0 1.23-.767 2.328-1.891 2.778a8.82 8.82 0 0 0-.672-.199l-1.612-.403-.231-.922C56.03 51.374 57 49.804 57 48v-6h-1a4.597 4.597 0 0 1-3.832-2.051L52 39.697V37h-2v2.697l-.168.252A4.597 4.597 0 0 1 46 42h-1v6c0 1.804.97 3.374 2.406 4.253l-.231.921-1.601.398a8.916 8.916 0 0 0-.688.203A3.008 3.008 0 0 1 43 51v-8c0-4.411 3.589-8 8-8s8 3.589 8 8zm-19-2.246c0 .258-.04.509-.074.762A3.946 3.946 0 0 0 38 41h-1.172a5.787 5.787 0 0 1-4.121-1.707L32 38.585l-.707.708A5.789 5.789 0 0 1 27.172 41H26c-.702 0-1.352.197-1.926.516-.034-.253-.074-.504-.074-.762A5.76 5.76 0 0 1 29.754 35h4.492A5.76 5.76 0 0 1 40 40.754zm1.501 15.15a8.648 8.648 0 0 0-4.064-2.324l-1.612-.403-.231-.922a5 5 0 0 0 2.305-3.254H38a3.974 3.974 0 0 0 3-1.382V51c0 1.503.695 2.884 1.799 3.817-.467.317-.9.683-1.298 1.087zM23 55.431v-7.813A3.974 3.974 0 0 0 26 49h.101a4.995 4.995 0 0 0 2.305 3.253l-.231.921-1.601.398A8.662 8.662 0 0 0 23 55.431zM26 47c-1.103 0-2-.897-2-2s.897-2 2-2zm7 4h-2c-1.654 0-3-1.346-3-3v-5.043a7.745 7.745 0 0 0 4-1.622 7.754 7.754 0 0 0 4 1.622V48c0 1.654-1.346 3-3 3zm-2.702 1.929c.232.033.462.071.702.071h2c.24 0 .47-.038.702-.071l.213.851L32 56.333l-1.915-2.553zM38 43c1.103 0 2 .897 2 2s-.897 2-2 2zM27.058 55.514l1.54-.383L32 59.667l3.401-4.535 1.549.388A6.649 6.649 0 0 1 41.917 61H22.083a6.645 6.645 0 0 1 4.975-5.486zm15.694 2a6.673 6.673 0 0 1 3.305-2.001l.968-.241a11.14 11.14 0 0 0 1.864 5.727h-4.952a8.626 8.626 0 0 0-1.185-3.485zM51 41.711a6.581 6.581 0 0 0 4 2.213V48c0 1.654-1.346 3-3 3h-2c-1.654 0-3-1.346-3-3v-4.076a6.581 6.581 0 0 0 4-2.213zM50 53h2c.24 0 .47-.038.702-.071L53 54.121v.636c0 .082-.01.161-.012.243h-3.976c-.002-.081-.012-.161-.012-.243v-.635l.298-1.193c.232.033.462.071.702.071zm-.716 4h3.432A9.123 9.123 0 0 1 51 60.492 9.123 9.123 0 0 1 49.284 57zM55 33.841A9.93 9.93 0 0 0 51 33c-4.117 0-7.659 2.503-9.191 6.065A7.773 7.773 0 0 0 37 33.514V15h18zM35 13v20.038a7.816 7.816 0 0 0-.754-.038h-4.492A7.707 7.707 0 0 0 25 34.642V11h14v2zm4-6v2H25V7zM9 15h14v21.958a7.695 7.695 0 0 0-.809 2.107C20.659 35.502 17.117 33 13 33a9.93 9.93 0 0 0-4 .841zm4 20c4.411 0 8 3.589 8 8v11.693a8.668 8.668 0 0 0-2.563-1.114l-1.612-.403-.231-.922C18.03 51.374 19 49.804 19 48v-6h-3.44a3.774 3.774 0 0 1-3.147-1.685A2.956 2.956 0 0 0 7 41.952V48c0 1.804.97 3.374 2.406 4.253l-.231.921-1.601.398A8.716 8.716 0 0 0 5 54.681V43c0-4.411 3.589-8 8-8zm1 16h-2c-1.654 0-3-1.346-3-3v-6.048a.954.954 0 0 1 1.748-.527A5.77 5.77 0 0 0 15.56 44H17v4c0 1.654-1.346 3-3 3zm-2.702 1.929c.232.033.462.071.702.071h2c.24 0 .47-.038.702-.071l.29 1.157C14.945 55.149 14.073 56 13 56s-1.945-.851-1.991-1.913zm-3.24 2.585 1.155-.287C9.734 56.83 11.224 58 13 58c1.775 0 3.265-1.169 3.787-2.772l1.163.292a6.657 6.657 0 0 1 3.295 1.998 8.669 8.669 0 0 0-1.182 3.483H3.072a6.653 6.653 0 0 1 4.986-5.487zM53.111 61a11.142 11.142 0 0 0 1.864-5.725l.975.244a6.66 6.66 0 0 1 4.978 5.48h-7.817z" fill="#000000" data-original="#000000" class=""></path><path d="M31 13h2v2h-2zM27 13h2v2h-2zM27 17h2v2h-2zM31 17h2v2h-2zM27 21h2v2h-2zM31 21h2v2h-2zM27 25h2v2h-2zM31 25h2v2h-2zM27 29h2v2h-2zM31 29h2v2h-2zM39 17h2v2h-2zM39 29h2v2h-2zM39 25h2v2h-2zM39 21h2v2h-2zM43 17h2v2h-2zM43 25h2v2h-2zM43 29h2v2h-2zM43 21h2v2h-2zM47 17h2v2h-2zM47 25h2v2h-2zM47 29h2v2h-2zM47 21h2v2h-2zM51 17h2v2h-2zM51 29h2v2h-2zM51 21h2v2h-2zM51 25h2v2h-2zM11 29h2v2h-2zM11 25h2v2h-2zM11 17h2v2h-2zM11 21h2v2h-2zM15 21h2v2h-2zM15 25h2v2h-2zM15 17h2v2h-2zM15 29h2v2h-2zM19 25h2v2h-2zM19 21h2v2h-2zM19 29h2v2h-2zM19 17h2v2h-2z" fill="#000000" data-original="#000000" class=""></path></g></svg>
