<svg xmlns="http://www.w3.org/2000/svg" version="1.1" xmlns:xlink="http://www.w3.org/1999/xlink" xmlns:svgjs="http://svgjs.com/svgjs" width="50px" height="50px" x="0" y="0" viewBox="0 0 64 64" style="enable-background:new 0 0 512 512" xml:space="preserve" class=""><g><linearGradient id="a" x1="7.536" x2="52.95" y1="62.364" y2="16.95" gradientUnits="userSpaceOnUse"><stop offset="0" stop-color="#d7e6f9"></stop><stop offset="1" stop-color="#ccd3dd"></stop></linearGradient><linearGradient id="b" x1="36.101" x2="55.899" y1="55.899" y2="36.101" gradientUnits="userSpaceOnUse"><stop offset="0" stop-color="#77f969"></stop><stop offset="1" stop-color="#03dd03"></stop></linearGradient><linearGradient id="c" x1="15.293" x2="48.707" y1="35.293" y2="1.879" gradientUnits="userSpaceOnUse"><stop offset="0" stop-color="#f95555"></stop><stop offset="1" stop-color="#d81d1d"></stop></linearGradient><path fill="url(#a)" d="M4 24h56v22a14 14 0 0 1-14 14H6a2 2 0 0 1-2-2V24z" data-original="url(#a)"></path><circle cx="46" cy="46" r="14" fill="url(#b)" data-original="url(#b)"></circle><path fill="url(#c)" d="M6 12h52a2 2 0 0 1 2 2v10H4V14a2 2 0 0 1 2-2z" data-original="url(#c)"></path><path d="M10 29h4v2h-4zM20 29h4v2h-4zM10 37h4v2h-4zM20 37h4v2h-4zM10 45h4v2h-4zM20 45h4v2h-4zM10 53h4v2h-4zM20 53h4v2h-4zM30 29h4v2h-4z" fill="#000000" data-original="#000000"></path><path d="M58 11h-1V6a3 3 0 0 0-6 0v5h-8V6a3 3 0 0 0-6 0v5H27V6a3 3 0 0 0-6 0v5h-8V6a3 3 0 0 0-6 0v5H6a3 3 0 0 0-3 3v44a3 3 0 0 0 3 3h40a15.017 15.017 0 0 0 15-15V14a3 3 0 0 0-3-3zm-5-5a1 1 0 0 1 2 0v5h-2zM39 6a1 1 0 0 1 2 0v5h-2zM23 6a1 1 0 0 1 2 0v5h-2zM9 6a1 1 0 0 1 2 0v5H9zm37 53a13 13 0 1 1 8.566-22.754L43.892 50.478l-5.185-5.185-1.414 1.414 6.815 6.815 11.876-15.834A12.99 12.99 0 0 1 46 59zm13-20.451A14.988 14.988 0 1 0 38.549 59H6a1 1 0 0 1-1-1V25h54zM59 23H5v-9a1 1 0 0 1 1-1h5v3a1 1 0 0 1-1 1H8v2h2a3 3 0 0 0 3-3v-3h12v3a1 1 0 0 1-1 1h-2v2h2a3 3 0 0 0 3-3v-3h14v3a1 1 0 0 1-1 1h-2v2h2a3 3 0 0 0 3-3v-3h12v3a1 1 0 0 1-1 1h-2v2h2a3 3 0 0 0 3-3v-3h1a1 1 0 0 1 1 1z" fill="#000000" data-original="#000000"></path></g></svg>
