<svg xmlns="http://www.w3.org/2000/svg" version="1.1" xmlns:xlink="http://www.w3.org/1999/xlink" xmlns:svgjs="http://svgjs.com/svgjs" width="20px" height="20px" x="0" y="0" viewBox="0 0 64 64" style="enable-background:new 0 0 512 512" xml:space="preserve" class=""><g><circle cx="32" cy="32" r="32" fill="#ed4637" data-original="#ed4637" class=""></circle><path fill="#ffffff" d="m35.66 32 15.58-15.59a2.57 2.57 0 0 0 .76-1.83A2.59 2.59 0 0 0 49.42 12a2.57 2.57 0 0 0-1.83.76L32 28.34 16.41 12.76a2.57 2.57 0 0 0-1.83-.76A2.59 2.59 0 0 0 12 14.58a2.57 2.57 0 0 0 .76 1.83L28.34 32 12.76 47.59a2.57 2.57 0 0 0-.76 1.83A2.59 2.59 0 0 0 14.58 52a2.57 2.57 0 0 0 1.83-.76L32 35.66l15.59 15.58a2.57 2.57 0 0 0 1.83.76A2.59 2.59 0 0 0 52 49.42a2.57 2.57 0 0 0-.76-1.83z" data-original="#ffffff" class=""></path></g></svg>
