<svg xmlns="http://www.w3.org/2000/svg" version="1.1" xmlns:xlink="http://www.w3.org/1999/xlink" xmlns:svgjs="http://svgjs.com/svgjs" width="20px" height="20px" x="0" y="0" viewBox="0 0 24 24" style="enable-background:new 0 0 512 512" xml:space="preserve" class=""><g><linearGradient id="a" x1="20.164" x2="3.836" y1="23.493" y2="7.164" gradientUnits="userSpaceOnUse"><stop offset="0" stop-color="#60efff"></stop><stop offset=".117" stop-color="#5ff1f2"></stop><stop offset=".503" stop-color="#5ef6ca"></stop><stop offset=".811" stop-color="#5cf9b2"></stop><stop offset="1" stop-color="#5cfaa9"></stop></linearGradient><path fill="url(#a)" d="M15 21v-2a3 3 0 0 0-3-3 3 3 0 0 0-3 3v2a2 2 0 0 1-2 2H5a4 4 0 0 1-4-4v-7.345A3.995 3.995 0 0 1 2.17 8.83l6.42-6.42a4.828 4.828 0 0 1 6.82 0l6.42 6.42A3.995 3.995 0 0 1 23 11.655V19a4 4 0 0 1-4 4h-2a2 2 0 0 1-2-2z" data-original="url(#a)" class=""></path><g fill="#212529"><path d="m22.537 8.123-6.42-6.42a5.828 5.828 0 0 0-8.234 0l-6.42 6.42A4.962 4.962 0 0 0 0 11.655V19a5.006 5.006 0 0 0 5 5h2a3.003 3.003 0 0 0 3-3v-2a2 2 0 0 1 4 0v2a3.003 3.003 0 0 0 3 3h2a5.006 5.006 0 0 0 5-5v-7.345a4.962 4.962 0 0 0-1.463-3.532zM22 19a3.003 3.003 0 0 1-3 3h-2a1.001 1.001 0 0 1-1-1v-2a4 4 0 0 0-8 0v2a1.001 1.001 0 0 1-1 1H5a3.003 3.003 0 0 1-3-3v-7.345a2.976 2.976 0 0 1 .877-2.118l6.42-6.42a3.829 3.829 0 0 1 5.406 0l6.42 6.42A2.976 2.976 0 0 1 22 11.655z" fill="#212529" data-original="#212529" class=""></path><path d="M14.414 5.5a3.496 3.496 0 0 0-4.828 0L7.793 7.293a1 1 0 0 0 1.414 1.414L11 6.914a1.464 1.464 0 0 1 2 0l1.793 1.793a1 1 0 0 0 1.414-1.414z" fill="#212529" data-original="#212529" class=""></path></g></g></svg>
