<svg xmlns="http://www.w3.org/2000/svg" version="1.1" xmlns:xlink="http://www.w3.org/1999/xlink" xmlns:svgjs="http://svgjs.com/svgjs" width="20px" height="20px" x="0" y="0" viewBox="0 0 32 32" style="enable-background:new 0 0 512 512" xml:space="preserve" class=""><g><path fill="#eeeeee" d="M15.8 24h-3V8h3c1.1 0 2 .9 2 2v12c0 1.1-.9 2-2 2z" data-original="#eeeeee"></path><path fill="#757575" d="m29.2 16-5.4-5.8V14h-7c-.6 0-1 .4-1 1v2c0 .6.4 1 1 1h7v3.8z" data-original="#757575"></path><path fill="#f44336" d="m10.1 5.1-6 2.4c-.8.3-1.3 1-1.3 1.9v13.3c0 .8.5 1.6 1.3 1.9l6 2.4c1 .4 2.2-.1 2.6-1.1.1-.2.1-.5.1-.7V7c0-1.1-.9-2-2-2-.2 0-.5 0-.7.1z" data-original="#f44336" class=""></path><path d="M8.8 17c.6 0 1 .4 1 1s-.4 1-1 1-1-.4-1-1 .5-1 1-1zm21.1-.3-5.4 5.8c-.4.4-1 .4-1.4 0-.2-.2-.3-.4-.3-.7V19h-4v3c0 1.7-1.3 3-3 3h-2c0 1.7-1.4 3-3.1 3-.4 0-.7-.1-1.1-.2l-6-2.4c-1.1-.5-1.9-1.6-1.9-2.8V9.4c0-1.2.7-2.3 1.9-2.8l6-2.4c1.5-.6 3.3.1 3.9 1.7.1.4.2.7.2 1.1h2c1.7 0 3 1.3 3 3v3h4v-2.8c0-.6.5-1 1-1 .3 0 .5.1.7.3l5.4 5.8c.5.4.5 1 .1 1.4zM11.8 7c0-.6-.4-1-1-1-.1 0-.3 0-.4.1l-6 2.4c-.3.1-.6.5-.6.9v13.3c0 .4.2.8.6.9l6 2.4c.5.2 1.1-.1 1.3-.6 0-.1.1-.2.1-.4zm5 12c-1.1 0-2-.9-2-2v-2c0-1.1.9-2 2-2v-3c0-.6-.4-1-1-1h-2v14h2c.6 0 1-.4 1-1zm11-3-3-3.2V14c0 .6-.4 1-1 1h-7v2h7c.6 0 1 .4 1 1v1.2z" fill="#000000" data-original="#000000" class=""></path></g></svg>
