<svg xmlns="http://www.w3.org/2000/svg" version="1.1" xmlns:xlink="http://www.w3.org/1999/xlink" xmlns:svgjs="http://svgjs.com/svgjs" width="45px" height="45px" x="0" y="0" viewBox="0 0 24 24" style="enable-background:new 0 0 512 512" xml:space="preserve"><g><linearGradient id="a" x1="12" x2="12" y1="5" y2="19" gradientUnits="userSpaceOnUse"><stop offset="0" stop-color="#fd6700"></stop><stop offset="1" stop-color="#ffce00"></stop></linearGradient><path fill="url(#a)" fill-rule="evenodd" d="M3 6a1 1 0 0 1 1-1h16a1 1 0 1 1 0 2H4a1 1 0 0 1-1-1zm0 6a1 1 0 0 1 1-1h10a1 1 0 1 1 0 2H4a1 1 0 0 1-1-1zm0 6a1 1 0 0 1 1-1h5a1 1 0 1 1 0 2H4a1 1 0 0 1-1-1z" clip-rule="evenodd" data-original="url(#a)"></path></g></svg>
