<svg xmlns="http://www.w3.org/2000/svg" version="1.1" xmlns:xlink="http://www.w3.org/1999/xlink" xmlns:svgjs="http://svgjs.com/svgjs" width="20px" height="20px" x="0" y="0" viewBox="0 0 72 72" style="enable-background:new 0 0 512 512" xml:space="preserve" class=""><g><linearGradient id="b" x1="4" x2="68" y1="39" y2="39" gradientUnits="userSpaceOnUse"><stop offset="0" stop-color="#afaeff"></stop><stop offset="1" stop-color="#eac2ff"></stop></linearGradient><linearGradient id="a"><stop offset="0" stop-color="#194fa3"></stop><stop offset="1" stop-color="#ae44af"></stop></linearGradient><linearGradient xlink:href="#a" id="c" x1="51.618" x2="50.371" y1="3.582" y2="68.988" gradientUnits="userSpaceOnUse"></linearGradient><linearGradient xlink:href="#a" id="d" x1="52" x2="50.752" y1="3.589" y2="68.995" gradientUnits="userSpaceOnUse"></linearGradient><linearGradient xlink:href="#a" id="e" x1="22.266" x2="21.019" y1="3.043" y2="68.449" gradientUnits="userSpaceOnUse"></linearGradient><linearGradient xlink:href="#a" id="f" x1="23.876" x2="22.629" y1="3.053" y2="68.459" gradientUnits="userSpaceOnUse"></linearGradient><linearGradient xlink:href="#a" id="g" x1="17.516" x2="16.269" y1="2.931" y2="68.337" gradientUnits="userSpaceOnUse"></linearGradient><linearGradient xlink:href="#a" id="h" x1="26.647" x2="25.399" y1="3.106" y2="68.512" gradientUnits="userSpaceOnUse"></linearGradient><path fill="url(#b)" d="M66 36V25h-6v-9h-6v9h-6v-4h-6v4h-5.263L37 20h3v-6h-5v-4H9v4H4v6h3l3 38h25l.547-10.396L38 66l1 2h24l1-2 4-30z" data-original="url(#b)" class=""></path><path fill="url(#c)" d="M68.75 35.338A1 1 0 0 0 68 35h-1V25a1 1 0 0 0-1-1h-5v-8a1 1 0 0 0-1-1h-6a1 1 0 0 0-1 1v8h-4v-3a1 1 0 0 0-1-1h-6a1 1 0 0 0-1 1v3h-5a1 1 0 0 0-1 1v10h-1a1 1 0 0 0-.992 1.124l3.781 30.248A3.005 3.005 0 0 0 39.766 69h22.469c1.51 0 2.79-1.13 2.977-2.628l3.781-30.248a1.005 1.005 0 0 0-.243-.786zM65 26v9h-4v-9zm-10-9h4v18c-.459 0-.858.313-.97.757L56.219 43H55V25zm-2 9v17h-4V26zm-10-4h4v21h-1.219l-1.812-7.243A1 1 0 0 0 43 35V25zm-6 4h4v9h-4zm26.227 40.124c-.063.5-.49.876-.993.876H39.766a1 1 0 0 1-.992-.876L35.133 37h7.086l1.812 7.243c.111.445.51.757.969.757h12a1 1 0 0 0 .97-.757L59.781 37h7.086z" data-original="url(#c)" class=""></path><path fill="url(#d)" d="M55 51h-8a1 1 0 0 0-1 1v8a1 1 0 0 0 1 1h8a1 1 0 0 0 1-1v-8a1 1 0 0 0-1-1zm-1 8h-6v-6h6z" data-original="url(#d)"></path><path fill="url(#e)" d="M34 57H10.924L8.082 21H40a1 1 0 0 0 1-1v-6a1 1 0 0 0-1-1h-4v-3a1 1 0 0 0-1-1H22.72l-1.772-5.316A.998.998 0 0 0 20 3H10a1 1 0 1 0 0 2h9.279l1.334 4H9a1 1 0 0 0-1 1v3H4a1 1 0 0 0-1 1v6a1 1 0 0 0 1 1h2.076l2.927 37.079A1 1 0 0 0 10 59h24a1 1 0 1 0 0-2zM10 11h24v2H10zm-5 4h34v4H5z" data-original="url(#e)" class=""></path><path fill="url(#f)" d="M23 52c1.654 0 3-1.346 3-3s-1.346-3-3-3-3 1.346-3 3 1.346 3 3 3zm0-4a1.001 1.001 0 1 1-1 1c0-.551.448-1 1-1z" data-original="url(#f)"></path><path fill="url(#g)" d="M17 26c-2.206 0-4 1.794-4 4s1.794 4 4 4 4-1.794 4-4-1.794-4-4-4zm0 6c-1.103 0-2-.897-2-2s.897-2 2-2 2 .897 2 2-.897 2-2 2z" data-original="url(#g)"></path><path fill="url(#h)" d="M29 37c0-1.654-1.346-3-3-3s-3 1.346-3 3 1.346 3 3 3 3-1.346 3-3zm-4 0a1.001 1.001 0 1 1 1 1c-.552 0-1-.449-1-1z" data-original="url(#h)"></path></g></svg>
