<svg xmlns="http://www.w3.org/2000/svg" version="1.1" xmlns:xlink="http://www.w3.org/1999/xlink" xmlns:svgjs="http://svgjs.com/svgjs" width="20px" height="20px" x="0" y="0" viewBox="0 0 512 512" style="enable-background:new 0 0 512 512" xml:space="preserve" class=""><g><linearGradient id="a"><stop offset="0" stop-color="#e9b251"></stop><stop offset="1" stop-color="#fe534d"></stop></linearGradient><linearGradient xlink:href="#a" id="b" x1=".1" x2="483.02" y1="494.99" y2="12.07" gradientTransform="matrix(1 0 0 -1 0 512)" gradientUnits="userSpaceOnUse"></linearGradient><linearGradient xlink:href="#a" id="c" x1="-5.801" x2="477.119" y1="489.089" y2="6.159" gradientTransform="matrix(1 0 0 -1 0 512)" gradientUnits="userSpaceOnUse"></linearGradient><linearGradient xlink:href="#a" id="d" x1="42.87" x2="525.79" y1="537.75" y2="54.83" gradientTransform="matrix(1 0 0 -1 0 512)" gradientUnits="userSpaceOnUse"></linearGradient><linearGradient xlink:href="#a" id="e" x1="-15.078" x2="467.843" y1="479.803" y2="-3.118" gradientTransform="matrix(1 0 0 -1 0 512)" gradientUnits="userSpaceOnUse"></linearGradient><linearGradient xlink:href="#a" id="f" x1="-73.465" x2="409.455" y1="421.415" y2="-61.505" gradientTransform="matrix(1 0 0 -1 0 512)" gradientUnits="userSpaceOnUse"></linearGradient><path d="M343.2 512c-83.8 0-151.9-68.1-151.9-151.9s68.1-151.9 151.9-151.9 151.9 68.1 151.9 151.9S426.9 512 343.2 512zm-41.3-204.8c-4 0-7.2 3.3-7.2 7.2 0 1.9.8 3.7 2.1 5.1l45.8 45.8c2.8 2.8 7.3 2.8 10.2.1l69.6-69.6c2.7-2.9 2.6-7.5-.3-10.3-2.8-2.6-7.2-2.6-10 0L347.6 350 307 309.3c-1.3-1.3-3.2-2.1-5.1-2.1z" fill="#000000" data-original="#000000" class=""></path><path fill="url(#b)" d="M343.2 218.2c-78.4 0-141.9 63.5-141.9 141.9S264.8 502 343.2 502s141.9-63.5 141.9-141.9-63.5-141.9-141.9-141.9zm86.2 84.7L360 372.3l-.1.1-.2.1c-6.7 6.6-17.6 6.6-24.2-.1l-45.8-45.8c-6.8-6.6-6.9-17.6-.3-24.4s17.6-6.9 24.4-.3l.3.3 33.6 33.6 57.3-57.3c6.6-6.8 17.6-7 24.4-.4s7 17.6.4 24.4c-.1.2-.2.3-.4.4z" data-original="url(#b)"></path><path d="M146.3 503.9H74.9c-33 0-58-24.9-58-57.9V57.8C16.9 24.9 41.9 0 75 0h297c32.1 0 57.4 25 57.5 56.8.1 27.5 0 75.5-.1 108.4-.1 18.6-15.2 33.6-33.8 33.7h-.7c-18.6 0-33.8-15.1-33.8-33.8V86.3c0-6.7-2-11.3-6.4-14.9-3-2.4-6.7-3.7-10.5-3.6h-242c-9.7 0-16.8 7.4-16.8 17.5v330.5c0 14.5 6 20.4 20.6 20.4h68.9c18.7 0 33.8 15.1 33.8 33.8s-15.1 33.8-33.8 33.8z" fill="#000000" data-original="#000000" class=""></path><path fill="url(#c)" d="M395.6 188.9h-.7c-13.1 0-23.8-10.6-23.8-23.8V86.3c0-9.1-2.9-16.8-10.1-22.6-4.8-3.8-10.7-5.9-16.9-5.9-69.5 0-172.6-.1-242.1 0-15.3 0-26.8 11.9-26.8 27.5v330.5c0 20 10.5 30.4 30.6 30.4h68.9c13.1 0 23.8 10.7 23.8 23.8s-10.6 23.8-23.7 23.8H74.7c-27.3 0-48-20.6-48-47.9V57.7C26.9 30.5 47.6 10 75 10h297c26.5 0 47.4 20.5 47.5 46.8.1 29 0 78.9-.1 108.4 0 13.1-10.7 23.7-23.8 23.7z" data-original="url(#c)" class=""></path><path d="M147.6 171.3c-18.6-.3-33.4-15.7-33.1-34.2.3-18.1 14.9-32.8 33.1-33.1h117.3c18.6.3 33.4 15.7 33.1 34.2-.3 18.1-14.9 32.8-33.1 33.1z" fill="#000000" data-original="#000000" class=""></path><path fill="url(#d)" d="M147.6 114h117.2c13.1 0 23.6 10.6 23.6 23.6 0 13.1-10.6 23.6-23.6 23.6H147.6c-13.1 0-23.6-10.6-23.6-23.6s10.6-23.6 23.6-23.6z" data-original="url(#d)"></path><path d="M147.6 263.5c-18.6-.3-33.4-15.6-33.1-34.2.3-18.1 14.9-32.8 33.1-33.1h70.1c18.6.3 33.4 15.6 33.1 34.2-.3 18.1-14.9 32.8-33.1 33.1z" fill="#000000" data-original="#000000" class=""></path><path fill="url(#e)" d="M147.6 206.2h70.1c13.1 0 23.6 10.6 23.6 23.6 0 13.1-10.6 23.6-23.6 23.6h-70.1c-13.1 0-23.7-10.6-23.7-23.6s10.6-23.6 23.7-23.6z" data-original="url(#e)"></path><path d="M147.8 288.4h20.6c18.6 0 33.7 15.1 33.7 33.6v.1c0 18.6-15.1 33.6-33.7 33.6h-20.6c-18.6 0-33.7-15.1-33.7-33.6v-.1c0-18.5 15.1-33.6 33.7-33.6z" fill="#000000" data-original="#000000" class=""></path><path fill="url(#f)" d="M147.8 298.4h20.6c13.1 0 23.6 10.6 23.6 23.6v.1c0 13.1-10.6 23.6-23.6 23.6h-20.6c-13.1 0-23.7-10.6-23.7-23.6v-.1c0-13 10.6-23.6 23.7-23.6z" data-original="url(#f)"></path></g></svg>
