<svg xmlns="http://www.w3.org/2000/svg" version="1.1" xmlns:xlink="http://www.w3.org/1999/xlink" xmlns:svgjs="http://svgjs.com/svgjs" width="60px" height="60px" x="0" y="0" viewBox="0 0 512 512" style="enable-background:new 0 0 512 512" xml:space="preserve" class=""><g><g fill-rule="evenodd" clip-rule="evenodd"><path fill="#fe646f" d="M64.217 333.491h41.421c5.508 0 10 4.492 10 10v97.833c0 5.508-4.492 10-10 10H64.217c-5.508 0-10-4.492-10-10v-97.833c0-5.508 4.492-10 10-10z" data-original="#fe646f"></path><path fill="#fd4755" d="M84.927 333.491h20.71c5.508 0 10 4.492 10 10v97.833c0 5.508-4.492 10-10 10h-20.71z" data-original="#fd4755"></path><path fill="#ffe177" d="M219.688 271.754h-41.422c-5.507 0-10 4.492-10 10v159.571c0 5.508 4.492 10 10 10h41.422c5.508 0 10-4.492 10-10V281.754c0-5.508-4.493-10-10-10z" data-original="#ffe177"></path><path fill="#ffd064" d="M219.688 271.754h-20.711v179.571h20.711c5.508 0 10-4.492 10-10V281.754c0-5.508-4.493-10-10-10z" data-original="#ffd064"></path><path fill="#6cf5c2" d="M333.737 207.288h-41.421c-5.508 0-10 4.492-10 10v224.036c0 5.508 4.492 10 10 10h41.421c5.508 0 10-4.492 10-10V217.288c-.001-5.507-4.493-10-10-10z" data-original="#6cf5c2"></path><path fill="#00e499" d="M333.737 207.288h-20.711v244.036h20.711c5.508 0 10-4.492 10-10V217.288c-.001-5.507-4.493-10-10-10z" data-original="#00e499"></path><path fill="#8ac9fe" d="M406.362 149.296h41.421c5.508 0 10 4.492 10 10v282.028c0 5.508-4.492 10-10 10h-41.421c-5.508 0-10-4.492-10-10V159.296c0-5.508 4.492-10 10-10z" data-original="#8ac9fe"></path><path fill="#60b7ff" d="M427.072 149.296h20.711c5.508 0 10 4.492 10 10v282.028c0 5.508-4.492 10-10 10h-20.711z" data-original="#60b7ff"></path><path fill="#a79ba7" d="M409.069 43.278a7.98 7.98 0 0 1-.812-15.938l49.121-2.666a7.98 7.98 0 0 1 8.307 9.094l.006.001-7.088 48.68a7.986 7.986 0 0 1-15.812-2.25l3.878-26.632C385.642 108.019 321.72 152.702 257.158 189.5c-69.131 39.402-138.98 69.744-206.779 93.355a7.976 7.976 0 0 1-5.25-15.062c66.943-23.313 135.906-53.269 204.154-92.167 63.527-36.208 126.449-80.188 186.56-133.799z" data-original="#a79ba7"></path><path fill="#837683" d="M45.262 481.873h421.477c5.508 0 10 4.492 10 10v3.193c0 5.508-4.492 10-10 10H45.262c-5.508 0-10-4.492-10-10v-3.193c0-5.508 4.492-10 10-10z" data-original="#837683"></path><circle cx="139.587" cy="94.435" r="87.5" fill="#ffe177" transform="rotate(-11.3 139.68 94.475)" data-original="#ffe177"></circle><path fill="#ffd064" d="M139.587 6.935c48.325 0 87.5 39.175 87.5 87.5s-39.175 87.5-87.5 87.5z" data-original="#ffd064"></path><path fill="#eceff1" d="M131.587 39.065a8 8 0 0 1 16 0v5.161c.551.113 1.1.238 1.646.377 9.839 2.494 18.788 8.962 23.489 20.158a7.999 7.999 0 0 1-14.75 6.188c-2.531-6.028-7.336-9.508-12.614-10.845a22.978 22.978 0 0 0-10.115-.244c-3.165.637-6.081 1.927-8.362 3.781-2.863 2.328-4.68 5.683-4.478 9.84.185 3.808 2.17 6.417 4.937 8.224 3.695 2.412 8.775 3.749 13.607 4.543 6.869 1.128 14.367 3.009 20.637 6.796 7.203 4.349 12.636 10.888 13.856 20.94.094.778.154 1.701.179 2.76.219 9.197-3.973 16.047-10.275 20.829-5.058 3.838-11.448 6.188-17.758 7.226v5.01a8 8 0 0 1-16 .001v-5.165c-5.151-.975-10.063-2.88-14.315-5.711-6.462-4.303-11.411-10.653-13.505-19.052a7.98 7.98 0 1 1 15.5-3.812c1.043 4.185 3.544 7.371 6.818 9.552 4.034 2.687 9.209 3.968 14.458 3.842a33.596 33.596 0 0 0 3.172-.254c4.441-.539 8.87-1.945 12.005-4.324 2.426-1.841 4.042-4.408 3.962-7.767a14.858 14.858 0 0 0-.117-1.26c-.52-4.289-2.97-7.159-6.23-9.127-4.193-2.532-9.744-3.879-14.95-4.733-6.639-1.09-13.845-3.074-19.733-6.917-6.815-4.449-11.71-11.031-12.186-20.849-.474-9.755 3.727-17.577 10.353-22.965 4.161-3.384 9.293-5.738 14.768-6.92v-5.283z" data-original="#eceff1"></path></g></g></svg>
