<svg xmlns="http://www.w3.org/2000/svg" version="1.1" xmlns:xlink="http://www.w3.org/1999/xlink" xmlns:svgjs="http://svgjs.com/svgjs" width="20px" height="20px" x="0" y="0" viewBox="0 0 512 512" style="enable-background:new 0 0 512 512" xml:space="preserve" class=""><g><path d="m499.113 170.114-43.066-15.461h-.001a155.18 155.18 0 0 0-8.957-21.608l19.527-41.389a7.236 7.236 0 0 0-1.427-8.203l-37.253-37.256a7.235 7.235 0 0 0-8.203-1.428l-41.39 19.527h-.001a155.024 155.024 0 0 0-21.609-8.957l-15.458-43.067a7.236 7.236 0 0 0-6.81-4.791h-52.686a7.236 7.236 0 0 0-6.81 4.791l-15.458 43.067a155.108 155.108 0 0 0-21.611 8.957L196.511 44.77a7.233 7.233 0 0 0-8.203 1.429l-37.256 37.254a7.232 7.232 0 0 0-1.427 8.201l19.526 41.389a155.598 155.598 0 0 0-8.955 21.609l-43.069 15.461a7.234 7.234 0 0 0-4.79 6.81v52.684a7.236 7.236 0 0 0 4.791 6.81l43.068 15.458a154.842 154.842 0 0 0 8.955 21.607l-19.526 41.393a7.235 7.235 0 0 0 1.427 8.202l37.256 37.254a7.24 7.24 0 0 0 8.203 1.429l41.388-19.525a155.15 155.15 0 0 0 21.611 8.956l15.457 43.066a7.237 7.237 0 0 0 6.81 4.791h52.686a7.237 7.237 0 0 0 6.81-4.791l15.457-43.066a155.026 155.026 0 0 0 21.61-8.956l41.391 19.528a7.24 7.24 0 0 0 8.203-1.429l37.253-37.257a7.235 7.235 0 0 0 1.427-8.204l-19.527-41.386a154.991 154.991 0 0 0 8.956-21.612l43.068-15.457a7.234 7.234 0 0 0 4.791-6.81v-52.685a7.232 7.232 0 0 0-4.789-6.809zm-190.162 95.84c-34.622 0-62.689-28.066-62.689-62.688s28.068-62.689 62.689-62.689c34.62 0 62.689 28.066 62.689 62.689.001 34.622-28.068 62.688-62.689 62.688z" style="" fill="#f7ac16" data-original="#f7ac16" class=""></path><path d="M308.12 122.975c-44.343 0-80.291 35.947-80.291 80.292 0 44.342 35.948 80.289 80.291 80.289 44.342 0 80.292-35.947 80.292-80.289-.001-44.345-35.951-80.292-80.292-80.292zm0 129.919c-27.409 0-49.629-22.219-49.629-49.628s22.22-49.629 49.629-49.629 49.629 22.219 49.629 49.629c0 27.409-22.222 49.628-49.629 49.628z" style="" fill="#f27019" data-original="#f27019" class=""></path><path d="M199.512 203.264c0-89.715 60.346-165.332 142.661-188.485-.752-2.097-2.004-7.299-7.711-7.299h-52.686a7.236 7.236 0 0 0-6.81 4.791L259.51 55.339a155.108 155.108 0 0 0-21.611 8.957L196.51 44.771a7.233 7.233 0 0 0-8.203 1.429l-37.256 37.254a7.232 7.232 0 0 0-1.427 8.201l19.526 41.389a155.598 155.598 0 0 0-8.955 21.609l-43.069 15.461a7.234 7.234 0 0 0-4.79 6.81v52.684a7.236 7.236 0 0 0 4.791 6.81l43.068 15.458a154.842 154.842 0 0 0 8.955 21.607l-19.526 41.393a7.235 7.235 0 0 0 1.427 8.202l37.256 37.254a7.24 7.24 0 0 0 8.203 1.429l41.388-19.525a155.15 155.15 0 0 0 21.611 8.956l15.457 43.066a7.237 7.237 0 0 0 6.81 4.791h52.686c5.728 0 6.978-5.259 7.711-7.299-82.314-23.153-142.661-98.769-142.661-188.486z" style="" fill="#f2961d" data-original="#f2961d" class=""></path><path d="m275.822 346.708-29.687-10.657h-.001a107.186 107.186 0 0 0-6.174-14.895l13.46-28.531a4.987 4.987 0 0 0-.984-5.655l-25.679-25.681a4.988 4.988 0 0 0-5.655-.984l-28.532 13.46h-.001a106.745 106.745 0 0 0-14.896-6.174l-10.655-29.688a4.989 4.989 0 0 0-4.694-3.303h-36.318a4.988 4.988 0 0 0-4.694 3.303l-10.655 29.688a107.202 107.202 0 0 0-14.897 6.174l-28.53-13.459a4.987 4.987 0 0 0-5.655.984l-25.681 25.68a4.987 4.987 0 0 0-.984 5.654l13.459 28.531c-2.423 4.79-4.5 9.801-6.172 14.896l-29.69 10.657a4.988 4.988 0 0 0-3.303 4.694v36.316a4.988 4.988 0 0 0 3.303 4.694l29.688 10.656a107.021 107.021 0 0 0 6.172 14.895l-13.459 28.533a4.987 4.987 0 0 0 .984 5.654l25.681 25.68a4.99 4.99 0 0 0 5.655.984l28.53-13.459a106.679 106.679 0 0 0 14.897 6.173l10.655 29.687a4.989 4.989 0 0 0 4.694 3.303h36.318a4.988 4.988 0 0 0 4.694-3.303l10.655-29.687a107.072 107.072 0 0 0 14.897-6.173l28.532 13.461a4.992 4.992 0 0 0 5.655-.984l25.68-25.682a4.989 4.989 0 0 0 .984-5.655l-13.46-28.53a106.754 106.754 0 0 0 6.174-14.897l29.688-10.655a4.988 4.988 0 0 0 3.303-4.694v-36.317a4.989 4.989 0 0 0-3.302-4.694zm-131.656 63c-22.173 0-40.148-17.975-40.148-40.148 0-22.173 17.975-40.148 40.148-40.148s40.148 17.975 40.148 40.148c0 22.172-17.976 40.148-40.148 40.148z" style="" fill="#f7ac16" data-original="#f7ac16" class=""></path><path d="M144.166 314.214c-30.567 0-55.347 24.779-55.347 55.347 0 30.567 24.78 55.345 55.347 55.345 30.568 0 55.347-24.779 55.347-55.345-.001-30.568-24.781-55.347-55.347-55.347zm0 83.018c-15.283 0-27.674-12.39-27.674-27.672 0-15.284 12.39-27.674 27.674-27.674 15.283 0 27.674 12.39 27.674 27.674-.001 15.283-12.391 27.672-27.674 27.672z" style="" fill="#f27019" data-original="#f27019" class=""></path><path d="M248.277 203.266c0-40.879 30.556-74.596 70.067-79.621-48.408-6.155-90.515 31.546-90.515 79.621 0 48.034 42.064 85.773 90.515 79.618-39.511-5.024-70.067-38.741-70.067-79.618zM109.266 369.561c0-27.073 19.443-49.59 45.123-54.388-34.171-6.386-65.571 19.798-65.571 54.388 0 34.539 31.347 60.782 65.571 54.386-25.679-4.798-45.123-27.315-45.123-54.386z" style="" fill="#e26814" data-original="#e26814"></path><path d="M71.918 369.229c0-60.906 40.448-112.356 95.943-128.978-.752-2.097-1.552-5.652-5.537-5.652h-36.318a4.988 4.988 0 0 0-4.694 3.303l-10.655 29.688a107.202 107.202 0 0 0-14.897 6.174l-28.53-13.459a4.987 4.987 0 0 0-5.655.984l-25.681 25.68a4.987 4.987 0 0 0-.984 5.654l13.459 28.531c-2.423 4.79-4.5 9.801-6.172 14.896l-29.69 10.657a4.988 4.988 0 0 0-3.303 4.694v36.316a4.988 4.988 0 0 0 3.303 4.694l29.688 10.656a107.021 107.021 0 0 0 6.172 14.895l-13.459 28.533a4.987 4.987 0 0 0 .984 5.654l25.681 25.68a4.99 4.99 0 0 0 5.655.984l28.53-13.459a106.679 106.679 0 0 0 14.897 6.173l10.655 29.687a4.989 4.989 0 0 0 4.694 3.303h36.318a4.988 4.988 0 0 0 4.694-3.303l1.058-2.947c-55.604-16.55-96.156-68.054-96.156-129.038z" style="" fill="#f2961d" data-original="#f2961d" class=""></path><path d="m505.875 164.791-44.468-15.961a163.15 163.15 0 0 0-6.569-15.853c21.942-46.513 20.874-43.608 20.874-45.927a7.486 7.486 0 0 0-2.19-5.29c-48.243-48.246-45.571-46.643-49.743-46.643-2.356 0 .487-1.02-45.925 20.874A163.124 163.124 0 0 0 362 49.423L346.04 4.954A7.482 7.482 0 0 0 338.998 0h-62.867a7.48 7.48 0 0 0-7.041 4.953l-15.962 44.469a163.67 163.67 0 0 0-15.852 6.568l-42.733-20.16a7.483 7.483 0 0 0-8.483 1.476l-44.454 44.455a7.484 7.484 0 0 0-1.476 8.482l20.16 42.733a163.143 163.143 0 0 0-6.568 15.852l-44.47 15.962a7.48 7.48 0 0 0-4.953 7.041v62.865c0 5.817 5.356 7.185 6.884 7.733l-6.914 19.265a114.932 114.932 0 0 0-9.111 3.775L66.693 252.04a7.485 7.485 0 0 0-8.483 1.475l-30.643 30.643a7.482 7.482 0 0 0-1.475 8.483l13.429 28.465a114.58 114.58 0 0 0-3.774 9.11L6.123 340.853a7.48 7.48 0 0 0-4.953 7.041v43.334a7.482 7.482 0 0 0 4.954 7.042l29.622 10.63a114.886 114.886 0 0 0 3.774 9.111l-13.427 28.467a7.48 7.48 0 0 0 1.475 8.481l30.641 30.643a7.484 7.484 0 0 0 8.483 1.476l28.466-13.429a113.99 113.99 0 0 0 9.112 3.775l10.631 29.62a7.48 7.48 0 0 0 7.041 4.954h43.335a7.48 7.48 0 0 0 7.041-4.954l10.631-29.62c3.09-1.127 6.135-2.39 9.112-3.775l28.465 13.43a7.49 7.49 0 0 0 8.486-1.477l30.64-30.643a7.48 7.48 0 0 0 1.475-8.482l-13.43-28.464a113.867 113.867 0 0 0 3.776-9.113l18.003-6.463a7.47 7.47 0 0 0 6.653 4.092h62.867a7.482 7.482 0 0 0 7.042-4.954l15.959-44.467a162.996 162.996 0 0 0 15.855-6.568l42.732 20.16a7.492 7.492 0 0 0 6.542-.077c1.551-.775-1.585 2.129 46.394-45.856a7.48 7.48 0 0 0 1.475-8.482l-20.159-42.731a162.353 162.353 0 0 0 6.569-15.856l44.468-15.96a7.48 7.48 0 0 0 4.954-7.042v-62.865a7.478 7.478 0 0 0-4.952-7.04zM271.088 385.965c-41.188 14.782-26.944 6.087-38.357 28.621a7.484 7.484 0 0 0-.093 6.572l12.712 26.943-23.199 23.201-26.945-12.712a7.484 7.484 0 0 0-6.572.093c-13.232 6.7-16.646 4.991-18.558 10.321l-10.062 28.034h-32.81l-10.062-28.034a7.48 7.48 0 0 0-4.708-4.581c-23.717-7.787-7.655-11.856-47.366 6.879l-23.2-23.2 12.711-26.945a7.478 7.478 0 0 0-.092-6.571c-11.264-22.25 2.984-13.782-38.357-28.621v-32.808l28.037-10.066c5.326-1.912 3.614-5.306 10.321-18.56a7.487 7.487 0 0 0 .091-6.569l-12.711-26.943 23.2-23.2 26.944 12.711c2.09.986 4.513.95 6.572-.093 22.261-11.274 13.783 2.983 28.62-38.357h32.81l10.062 28.035a7.48 7.48 0 0 0 4.706 4.58c14.118 4.639 15.312 8.248 20.425 5.834l26.946-12.712 23.198 23.201-12.712 26.943a7.48 7.48 0 0 0 .093 6.572c11.265 22.248-2.983 13.78 38.357 28.622v32.81h-.001zm224.779-156.53-42.905 15.399c-5.814 2.087-3.481 6.274-13.103 25.273a7.484 7.484 0 0 0-.093 6.572l19.452 41.231-37.009 37.012-41.233-19.453c-5.623-2.652-6.72 1.912-27.136 8.613a7.488 7.488 0 0 0-4.709 4.581l-15.397 42.904h-47.692c.012-.279.008-43.394.008-43.673a7.482 7.482 0 0 0-4.953-7.041l-29.622-10.634a114.721 114.721 0 0 0-3.776-9.111c14.533-30.805 14.195-29.424 14.144-31.816a7.474 7.474 0 0 0-2.189-5.132c-33.401-33.402-31.64-32.443-35.194-32.795-2.746-.273-1.232-.596-32.397 14.107a114.694 114.694 0 0 0-9.111-3.776l-10.631-29.621a7.483 7.483 0 0 0-7.042-4.954c-46.923 0-44.236-.194-46.017.497v-50.52l42.906-15.4a7.48 7.48 0 0 0 4.58-4.707c6.71-20.434 11.27-21.504 8.613-27.136l-19.452-41.232 37.012-37.013 41.231 19.452c5.627 2.653 6.691-1.894 27.138-8.615a7.481 7.481 0 0 0 4.705-4.579l15.399-42.904h52.342l15.397 42.904c2.106 5.865 6.133 3.412 25.274 13.103a7.478 7.478 0 0 0 6.571.092l41.235-19.453 37.008 37.01-19.453 41.235a7.475 7.475 0 0 0 .093 6.571c9.698 19.151 7.233 23.164 13.103 25.272l42.905 15.399v52.34h-.002z" style="" fill="#020202" data-original="#020202" class=""></path><path d="M163.424 309.94a7.479 7.479 0 0 0-9.457 4.741 7.48 7.48 0 0 0 4.741 9.458 47.794 47.794 0 0 1 32.769 45.422c0 26.392-21.473 47.864-47.866 47.864s-47.866-21.472-47.866-47.864a47.793 47.793 0 0 1 32.769-45.422 7.48 7.48 0 0 0 4.741-9.458 7.478 7.478 0 0 0-9.457-4.741 62.731 62.731 0 0 0-43.014 59.621c0 34.642 28.185 62.826 62.828 62.826 34.644 0 62.828-28.184 62.828-62.826a62.736 62.736 0 0 0-43.016-59.621zM387.551 213.417c-4.03-.891-8.029 1.65-8.923 5.684-7.322 33.013-37.209 56.974-71.063 56.974-40.147 0-72.81-32.661-72.81-72.808 0-40.148 32.662-72.811 72.81-72.811 33.853 0 63.739 23.96 71.062 56.973a7.484 7.484 0 0 0 8.923 5.684 7.482 7.482 0 0 0 5.684-8.923c-8.742-39.405-43.927-68.695-85.67-68.695-48.397 0-87.772 39.375-87.772 87.773 0 73.489 85.816 114.676 143.063 68.156 15.334-12.459 26.124-29.891 30.38-49.083a7.482 7.482 0 0 0-5.684-8.924z" style="" fill="#020202" data-original="#020202" class=""></path><path d="M108.698 369.68c0 19.384 15.77 35.153 35.154 35.153s35.154-15.77 35.154-35.153c0-19.385-15.77-35.155-35.154-35.155s-35.154 15.771-35.154 35.155zm35.154-20.193c11.134 0 20.192 9.058 20.192 20.193 0 11.133-9.058 20.191-20.192 20.191s-20.192-9.058-20.192-20.191c0-11.135 9.059-20.193 20.192-20.193zM307.806 146.275c-31.49 0-57.11 25.62-57.11 57.11s25.62 57.109 57.11 57.109 57.11-25.619 57.11-57.109-25.618-57.11-57.11-57.11zm0 99.257c-23.241 0-42.148-18.907-42.148-42.147s18.907-42.148 42.148-42.148 42.148 18.908 42.148 42.148-18.906 42.147-42.148 42.147z" style="" fill="#020202" data-original="#020202" class=""></path></g></svg>
