<svg xmlns="http://www.w3.org/2000/svg" version="1.1" xmlns:xlink="http://www.w3.org/1999/xlink" xmlns:svgjs="http://svgjs.com/svgjs" width="20px" height="20px" x="0" y="0" viewBox="0 0 512 512" style="enable-background:new 0 0 512 512" xml:space="preserve" class=""><g><linearGradient id="a"><stop offset="0" stop-color="#1aa3ff"></stop><stop offset="1" stop-color="#0f56f6"></stop></linearGradient><linearGradient xlink:href="#a" id="b" x1="5.23" x2="504.69" y1="509.055" y2="9.595" gradientTransform="matrix(1 0 0 -1 0 514.55)" gradientUnits="userSpaceOnUse"></linearGradient><linearGradient xlink:href="#a" id="c" x1="5.297" x2="504.757" y1="509.122" y2="9.662" gradientTransform="matrix(1 0 0 -1 0 514.55)" gradientUnits="userSpaceOnUse"></linearGradient><path fill="url(#b)" d="M256.1 86.3c52.6 0 99.2 17.8 142 47.2 22.1 15.2 42.4 32.9 60.7 52.5 19.2 20.7 36.9 42.7 52 66.6 1.6 2.5 1.6 4.3 0 6.8-13.6 21-28.8 41-45.5 59.7-25.4 28.5-54.1 53-87 72.4-28.8 17-59.8 28.5-93.1 32.5-49.3 5.8-96.2-2.8-140.2-26.2-44.5-23.5-81.2-56.3-112.5-95.2-11.1-13.8-20.8-28.7-31.3-43-1.9-2.6-1.4-4.6.1-7.2 13-21 28.2-40.2 44.6-58.6 28.8-32.2 61.4-59.5 99.8-79.8 25.2-13.4 52.6-22.2 80.9-26 9.8-1.2 19.7-1.2 29.5-1.7zM380.5 256c-.6-70.4-56.4-124.5-124.7-124.4-68.4-.3-124.1 54.8-124.4 123.2v1.4c.1 69.2 55.2 124.5 124.6 124.4 69.2-.1 124-55.2 124.5-124.6z" data-original="url(#b)" class=""></path><path fill="url(#c)" d="M256 333.8c-42.8 0-77.8-35-77.8-77.8s35.1-77.7 77.9-77.7 77.6 35.2 77.5 78c0 42.5-35.1 77.5-77.6 77.5z" data-original="url(#c)"></path></g></svg>
